<svg width="24" height="24" xmlns="http://www.w3.org/2000/svg">

 <g>
  <title>background</title>
  <rect fill="none" id="canvas_background" height="402" width="582" y="-1" x="-1"/>
 </g>
 <g>
  <title>Layer 1</title>
  <path fill="#ffffff" id="svg_1" d="m20,13l-16,0c-0.7,0 -1.1,0.6 -1,1.2l1.4,6.2c0.2,0.9 1,1.6 2,1.6l11.1,0c1,0 1.8,-0.7 2,-1.6l1.4,-6.2c0.2,-0.6 -0.3,-1.2 -0.9,-1.2zm-9,5c0,0.5 -0.4,1 -1,1s-1,-0.5 -1,-1l0,-2c0,-0.5 0.4,-1 1,-1s1,0.5 1,1l0,2zm4,0c0,0.5 -0.4,1 -1,1s-1,-0.5 -1,-1l0,-2c0,-0.5 0.4,-1 1,-1s1,0.5 1,1l0,2z"/>
  <path fill="#ffffff" id="svg_2" d="m21,8l-2.2,0l-1.9,-4.8c-0.4,-1 -1.6,-1.5 -2.6,-1.1c-1,0.4 -1.5,1.6 -1.1,2.6l1.3,3.3l-5,0l1.3,-3.3c0.4,-1 -0.1,-2.2 -1.1,-2.6c-1,-0.4 -2.2,0.1 -2.6,1.1l-1.9,4.8l-2.2,0c-1.1,0 -2,0.9 -2,2l0,1c0,0.6 0.4,1 1,1l20,0c0.6,0 1,-0.4 1,-1l0,-1c0,-1.1 -0.9,-2 -2,-2z"/>
  <ellipse stroke="null" ry="3.660056" rx="3.982325" id="svg_5" cy="17.208673" cx="11.953962" fill-opacity="null" stroke-opacity="null" stroke-width="null" fill="#4160fb"/>
 </g>
</svg>